# xmcd CD database file
#
# Track frame offsets:
#	150
#	17422
#	36145
#	64103
#	78548
#	95885
#	111224
#	129996
#	148104
#	166415
#	181827
#	199869
#	216983
#	232202
#	246490
#	259784
#	279062
#	294514
#	307302
#	321978
#
# Disc length: 4547 seconds
#
# Revision: 0
# Processed by: cddbd v1.5.2PL0 Copyright (c) Steve Scherf et al.
# Submitted via: CDex 1.70beta3
#
DISCID=3411c114
DTITLE=KING TWIN BEST SIRIES - MINYOU BEST ge CD02
DYEAR=2010
DGENRE=Country
TTITLE0=01　串本節
TTITLE1=02　因幡大黒舞
TTITLE2=03　安来節～どじょう掬い～
TTITLE3=04　下津井節
TTITLE4=05　音戸の舟唄
TTITLE5=06　男なら
TTITLE6=07　阿波踊り
TTITLE7=08　宇和島さんさ
TTITLE8=09　よさこい鳴子踊り
TTITLE9=10　黒田節
TTITLE10=11　祝い目出度
TTITLE11=12　正調博多節
TTITLE12=13　万才くずし
TTITLE13=14　長崎のんのこ節
TTITLE14=15　牛深ハイヤ節
TTITLE15=16　宇目の唄喧嘩
TTITLE16=17　刈干切唄
TTITLE17=18　鹿児島おはら節
TTITLE18=19　串木野さのさ
TTITLE19=20　安里屋ユンタ
EXTD=YEAR: 2010
EXTT0=
EXTT1=
EXTT2=
EXTT3=
EXTT4=
EXTT5=
EXTT6=
EXTT7=
EXTT8=
EXTT9=
EXTT10=
EXTT11=
EXTT12=
EXTT13=
EXTT14=
EXTT15=
EXTT16=
EXTT17=
EXTT18=
EXTT19=
PLAYORDER=
